<svg xmlns="http://www.w3.org/2000/svg" width="24" height="24" viewBox="0 0 24 24">
    <g fill="none" fill-rule="evenodd">
        <path d="M0 0h24v24H0z"/>
        <path d="M12 6.157A5.563 5.563 0 0 0 7.059 3.14 5.568 5.568 0 0 0 1.5 8.704c0 1.384.224 3.447 2.157 5.383 1.819 1.818 7.745 6.496 7.997 6.666.104.07.226.106.346.106V6.157z"/>
        <path fill="#666" fill-rule="nonzero" d="M12 20.375a.137.137 0 0 0 .074-.022c.782-.53 6.538-5.22 7.926-6.608 1.51-1.512 2.015-3.093 2.015-5.04 0-2.8-2.277-5.08-5.074-5.08a5.078 5.078 0 0 0-4.51 2.755c-.181.35-.68.35-.861 0a5.078 5.078 0 0 0-4.511-2.755 5.083 5.083 0 0 0-5.074 5.08c0 1.947.505 3.528 2.014 5.04 1.389 1.387 7.145 6.077 7.926 6.607.022.015.05.023.075.023zm4.941-17.719a6.052 6.052 0 0 1 6.044 6.049c0 2.182-.584 4.007-2.3 5.725-1.433 1.433-7.236 6.16-8.068 6.725a1.107 1.107 0 0 1-1.235 0c-.83-.564-6.634-5.292-8.068-6.725-1.715-1.718-2.298-3.543-2.298-5.725a6.052 6.052 0 0 1 6.043-6.049A6.04 6.04 0 0 1 12 5.226a6.04 6.04 0 0 1 4.941-2.57z"/>
        <path fill="#666" fill-rule="nonzero" d="M4.916 8.706c0-1.158.938-2.096 2.095-2.096a.375.375 0 1 0 .001-.75 2.846 2.846 0 0 0-2.846 2.846.375.375 0 0 0 .75 0z"/>
    </g>
</svg>
