<svg xmlns="http://www.w3.org/2000/svg" width="24" height="24" viewBox="0 0 24 24">
    <g fill="none" fill-rule="evenodd">
        <path d="M0 0h24v24H0z"/>
        <g fill="#666" fill-rule="nonzero">
            <path d="M4.794 11.441a7.206 7.206 0 0 1 14.412 0v6.147c0 .96.776 1.735 1.735 1.735.667 0 .667 1 0 1H3.059c-.667 0-.667-1 0-1 .958 0 1.735-.777 1.735-1.735v-6.147zm1 0v6.147c0 .659-.233 1.263-.62 1.735h13.652a2.724 2.724 0 0 1-.62-1.735v-6.147a6.206 6.206 0 0 0-12.412 0z"/>
            <path d="M9.823 19.823a2.177 2.177 0 0 0 4.354 0 .5.5 0 1 0-1 0 1.177 1.177 0 0 1-2.354 0 .5.5 0 1 0-1 0zM13.617 4.735V3.617a1.617 1.617 0 1 0-3.234 0v1.118a.5.5 0 0 0 1 0V3.617a.617.617 0 1 1 1.234 0v1.118a.5.5 0 1 0 1 0zM12 6.596a4.846 4.846 0 0 0-4.846 4.846.375.375 0 0 0 .75 0A4.096 4.096 0 0 1 12 7.346a.375.375 0 1 0 0-.75z"/>
        </g>
    </g>
</svg>
