<svg xmlns="http://www.w3.org/2000/svg" width="20" height="20" viewBox="0 0 20 20">
    <g fill="none" fill-rule="evenodd">
        <path d="M2 2h16v16H2z"/>
        <path fill="#9FA6B0" d="M12.46 4.568l-.784.37-2.47 1.161c-.663.313-1.581.567-2.04.567h-.832V12h.833c.05 0 .107.004.167.01v2.656c0 .734.6 1.334 1.333 1.334S10 15.4 10 14.666v-1.724l2.46 1.157c.664.313 1.207-.033 1.207-.766v-8c0-.733-.543-1.077-1.207-.765zm3.012 2.903l.666-.667a.667.667 0 0 0-.942-.942l-.667.666a.666.666 0 1 0 .943.943zm.666 5.333a.667.667 0 0 0 0-.942l-.666-.667a.667.667 0 0 0-.943.943l.667.666a.664.664 0 0 0 .943 0zm1.196-3.47a.667.667 0 0 0-.667-.668h-1.333a.666.666 0 1 0 0 1.334h1.333a.666.666 0 0 0 .667-.667zM5.267 11.865a2.534 2.534 0 1 1 0-5.066v5.066z"/>
    </g>
</svg>
