<svg xmlns="http://www.w3.org/2000/svg" width="24" height="24" viewBox="0 0 24 24">
    <g fill="none" fill-rule="nonzero">
        <path fill="#EAEAEA" d="M7.74 20.68c2.555 0 13.823 0 7.926-16.68 0 0 13.259 19.198-7.927 17.118v-.439z"/>
        <path fill="#666" d="M11.75 20.99c-3.547 0-7.688-1.633-7.688-6.236 0-5.277 4.247-11.745 7.688-11.745 3.451 0 7.688 6.468 7.688 11.745 0 4.603-4.141 6.237-7.688 6.237M11.75 2C7.333 2 3 9.296 3 14.754 3 19.155 6.44 22 11.75 22c5.32 0 8.75-2.845 8.75-7.246C20.5 9.296 16.178 2 11.75 2"/>
        <path fill="#EAEAEA" d="M7.317 15.975c0 .538-.476.974-1.065.974-.587 0-1.065-.436-1.065-.974S5.665 15 6.252 15c.59 0 1.065.437 1.065.975M10.736 19.537c0 .297-.262.537-.587.537-.324 0-.586-.24-.586-.537 0-.296.262-.537.586-.537.325 0 .587.241.587.537M7.747 18.67c0 .37-.328.67-.732.67-.405 0-.734-.3-.734-.67 0-.37.329-.67.734-.67.404 0 .732.3.732.67M9.315 18.547c-.466 0-.846-.346-.846-.773 0-.428.38-.774.846-.774.468 0 .846.346.846.774 0 .427-.378.773-.846.773zM13.693 13.318l.245 1.48a.995.995 0 0 1-.97 1.173.94.94 0 0 1-.458-.113l-1.294-.706-1.305.706c-.324.16-.692.148-.982-.057-.1-.137-.157-.262-.134-.364l.324-1.857-.48-.467a.581.581 0 0 1 .156-.934.636.636 0 0 1 .156-.057l2.132-.24 1.344-2.68c.069-.137-.466-.155-.344-.2.123-.046.74 1.002.884 1.287.097.19.369.406.815.648l1.25.2s.306.403.373.528c-.023.228-.498.445-.664.605l-1.048 1.048z"/>
        <path fill="#666" d="M14.962 11.613l-1.536 1.541.363 2.189c.01.09-.04.142-.063.155-.039.028-.1.065-.176.013l-1.888-1.023-1.898 1.023a.12.12 0 0 1-.164-.013c-.036-.013-.086-.064-.063-.155l.363-2.189-.95-.958-.586-.583c-.064-.065-.05-.142-.04-.181.013-.026.04-.09.126-.104l2.112-.323.95-1.982c.077-.168.213-.168.29 0l.362.764.586 1.218 2.112.323a.178.178 0 0 1 .138.104.174.174 0 0 1-.038.181m.975 0c.013-.155 0-.324-.05-.479a1.091 1.091 0 0 0-.887-.777l-1.625-.246-.725-1.528c-.374-.777-1.6-.777-1.975 0L9.95 10.11l-1.636.246a1.125 1.125 0 0 0-.888.777 1.17 1.17 0 0 0 .286 1.166L8.89 13.49l-.277 1.684c-.075.427.088.854.44 1.113a.09.09 0 0 0 .05.026c.323.235.735.246 1.098.066l1.462-.803 1.452.803c.16.09.336.129.512.129.224 0 .463-.078.649-.22.339-.26.512-.687.439-1.114l-.277-1.684 1.177-1.191a1.1 1.1 0 0 0 .323-.687"/>
    </g>
</svg>
